<svg width="40" height="40" viewBox="0 0 40 40" fill="none" xmlns="http://www.w3.org/2000/svg">
<path d="M37.5 13.5L33.3333 15.7917L29.1667 19.75V33.3333H35C36.3808 33.3333 37.5 32.2142 37.5 30.8333V13.5Z" fill="#4CAF50"/>
<path d="M2.5 13.5L5.51167 14.925L10.8333 19.75V33.3333H5C3.61917 33.3333 2.5 32.2142 2.5 30.8333V13.5Z" fill="#1E88E5"/>
<path d="M29.1667 9.33333L20 16.2083L10.8333 9.33333L10 14.1667L10.8333 19.75L20 26.625L29.1667 19.75L30 14.1667L29.1667 9.33333Z" fill="#E53935"/>
<path d="M2.5 10.2483V13.5L10.8333 19.75V9.33332L8.23 7.38249C7.61 6.91749 6.85667 6.66666 6.08167 6.66666C4.10333 6.66666 2.5 8.26999 2.5 10.2483Z" fill="#C62828"/>
<path d="M37.5 10.2483V13.5L29.1667 19.75V9.33332L31.77 7.38249C32.39 6.91749 33.1433 6.66666 33.9183 6.66666C35.8967 6.66666 37.5 8.26999 37.5 10.2483Z" fill="#FBC02D"/>
</svg>
