<svg width="40" height="40" viewBox="0 0 40 40" fill="none" xmlns="http://www.w3.org/2000/svg">
<path d="M36 32.4167C36 34.9485 33.9485 37 31.4167 37H7.58333C5.05242 37 3 34.9485 3 32.4167V8.58333C3 6.0515 5.05242 4 7.58333 4H31.4167C33.9485 4 36 6.0515 36 8.58333V32.4167Z" fill="#0288D1"/>
<path d="M8.50002 15.9167H13.0833V31.5H8.50002V15.9167ZM10.7779 14.0833H10.7523C9.3846 14.0833 8.50002 13.064 8.50002 11.7908C8.50002 10.49 9.4121 9.50002 10.8045 9.50002C12.1988 9.50002 13.0577 10.49 13.0833 11.7908C13.0833 13.0631 12.1988 14.0833 10.7779 14.0833ZM30.5 31.5H25.9167V23.1593C25.9167 21.1444 24.7938 19.7694 22.9907 19.7694C21.6148 19.7694 20.8704 20.6971 20.5093 21.5936C20.3773 21.9144 20.4167 22.8018 20.4167 23.25V31.5H15.8333V15.9167H20.4167V18.3147C21.0776 17.2917 22.1125 15.9167 24.7598 15.9167C28.0397 15.9167 30.4991 17.9792 30.4991 22.5845L30.5 31.5Z" fill="white"/>
</svg>
