<svg width="40" height="40" viewBox="0 0 40 40" fill="none" xmlns="http://www.w3.org/2000/svg">
<path d="M36.2332 19.7137C36.2332 28.3925 29.021 35.4274 20.1166 35.4274C18.7862 35.4274 17.4977 35.271 16.2615 34.9729C15.8868 34.8826 15.4952 34.9173 15.1503 35.0897L11.6232 36.8537C10.7126 37.309 9.64081 36.6466 9.64081 35.628V32.3846C9.64081 31.9212 9.43371 31.4893 9.09204 31.1766C5.95414 28.3079 4 24.2344 4 19.7137C4 11.0349 11.2122 4 20.1166 4C29.021 4 36.2332 11.0349 36.2332 19.7137Z" fill="url(#paint0_radial_2_24)"/>
<path opacity="0.05" d="M28.9743 14.7111C28.6294 14.7111 28.295 14.8255 28.0073 15.0423L23.4189 18.4389C23.3117 18.5194 23.1933 18.5597 23.0684 18.5597C22.9475 18.5597 22.8339 18.5219 22.738 18.4501L19.5372 16.0407C18.8861 15.5564 18.1189 15.301 17.3155 15.301C16.0455 15.301 14.8779 15.9384 14.1921 17.0061L13.2163 18.5299L9.89626 23.9249C9.58037 24.4197 9.5562 25.0305 9.83904 25.5479C10.1275 26.0749 10.6723 26.4021 11.2605 26.4021C11.6054 26.4021 11.9398 26.2876 12.2275 26.0709L16.8159 22.6743C16.9231 22.5937 17.0416 22.5534 17.1665 22.5534C17.2873 22.5534 17.401 22.5913 17.4968 22.663L20.6976 25.0724C21.3495 25.5576 22.1159 25.8122 22.9193 25.8122C24.1893 25.8122 25.3569 25.1748 26.0427 24.1071L27.0185 22.5832L30.3385 17.1882C30.6544 16.6934 30.6786 16.0826 30.3958 15.5653C30.1073 15.0383 29.5625 14.7111 28.9743 14.7111Z" fill="black"/>
<path opacity="0.07" d="M28.9743 15.114C28.7172 15.114 28.4666 15.2002 28.2498 15.3638L23.659 18.7628C23.485 18.8942 23.2819 18.9627 23.0692 18.9627C22.8604 18.9627 22.663 18.8966 22.497 18.7725L19.2955 16.3622C18.7161 15.9311 18.0319 15.7039 17.3155 15.7039C16.1833 15.7039 15.143 16.272 14.5314 17.2245L13.5563 18.7483L10.2403 24.1377C10.001 24.5124 9.98248 24.9701 10.1936 25.3553C10.408 25.7469 10.8278 26 11.2613 26C11.5184 26 11.769 25.9137 11.9858 25.7502L16.5766 22.3512C16.7506 22.2198 16.9537 22.1513 17.1665 22.1513C17.3752 22.1513 17.5726 22.2174 17.7386 22.3415L20.9402 24.7517C21.5195 25.1829 22.2037 25.4101 22.9201 25.4101C24.0523 25.4101 25.0926 24.842 25.7042 23.8895L26.6793 22.3657L29.9953 16.9763C30.2346 16.6016 30.2531 16.1439 30.042 15.7587C29.8277 15.367 29.4086 15.114 28.9743 15.114Z" fill="black"/>
<path d="M28.4924 15.6853L23.8992 19.0859C23.4076 19.4566 22.7388 19.4566 22.2553 19.094L19.0529 16.6838C17.6991 15.6765 15.7812 16.023 14.8706 17.4412L13.8956 18.9643L10.5836 24.3472C10.1001 25.1047 11.0268 25.9669 11.744 25.427L16.3373 22.0264C16.8288 21.6557 17.4977 21.6557 17.9811 22.0184L21.1835 24.4286C22.5373 25.4359 24.4552 25.0894 25.3658 23.6711L26.3408 22.1481L29.6528 16.7651C30.1363 16.0077 29.2096 15.1454 28.4924 15.6853Z" fill="white"/>
<defs>
<radialGradient id="paint0_radial_2_24" cx="0" cy="0" r="1" gradientUnits="userSpaceOnUse" gradientTransform="translate(9.71092 35.4096) scale(38.3672 38.3672)">
<stop stop-color="#1292FF"/>
<stop offset="0.079" stop-color="#2982FF"/>
<stop offset="0.23" stop-color="#4E69FF"/>
<stop offset="0.351" stop-color="#6559FF"/>
<stop offset="0.428" stop-color="#6D53FF"/>
<stop offset="0.754" stop-color="#DF47AA"/>
<stop offset="0.946" stop-color="#FF6257"/>
</radialGradient>
</defs>
</svg>
