<svg width="40" height="40" viewBox="0 0 40 40" fill="none" xmlns="http://www.w3.org/2000/svg">
<path d="M19.75 3.79761C15.5192 3.79761 11.4616 5.4783 8.46996 8.46995C5.47831 11.4616 3.79762 15.5192 3.79762 19.75C3.79762 23.9808 5.47831 28.0384 8.46996 31.03C11.4616 34.0217 15.5192 35.7024 19.75 35.7024C23.9808 35.7024 28.0384 34.0217 31.03 31.03C34.0217 28.0384 35.7024 23.9808 35.7024 19.75C35.7024 15.5192 34.0217 11.4616 31.03 8.46995C28.0384 5.4783 23.9808 3.79761 19.75 3.79761V3.79761Z" fill="#03A9F4"/>
<path d="M27.3274 18.1548C24.8947 18.1548 22.5616 19.1212 20.8414 20.8414C19.1212 22.5616 18.1548 24.8947 18.1548 27.3274C18.1548 29.7601 19.1212 32.0932 20.8414 33.8134C22.5616 35.5336 24.8947 36.5 27.3274 36.5C29.7601 36.5 32.0932 35.5336 33.8134 33.8134C35.5336 32.0932 36.5 29.7601 36.5 27.3274C36.5 24.8947 35.5336 22.5616 33.8134 20.8414C32.0932 19.1212 29.7601 18.1548 27.3274 18.1548V18.1548ZM12.1726 3C10.9681 3 9.77528 3.23726 8.66241 3.69822C7.54954 4.15919 6.53835 4.83484 5.6866 5.6866C4.83484 6.53835 4.15919 7.54954 3.69822 8.66241C3.23726 9.77528 3 10.9681 3 12.1726C3 13.3772 3.23726 14.57 3.69822 15.6828C4.15919 16.7957 4.83484 17.8069 5.6866 18.6586C6.53835 19.5104 7.54954 20.186 8.66241 20.647C9.77528 21.108 10.9681 21.3452 12.1726 21.3452C13.3772 21.3452 14.57 21.108 15.6828 20.647C16.7957 20.186 17.8069 19.5104 18.6586 18.6586C19.5104 17.8069 20.186 16.7957 20.647 15.6828C21.108 14.57 21.3452 13.3772 21.3452 12.1726C21.3452 10.9681 21.108 9.77528 20.647 8.66241C20.186 7.54954 19.5104 6.53835 18.6586 5.6866C17.8069 4.83484 16.7957 4.15919 15.6828 3.69822C14.57 3.23726 13.3772 3 12.1726 3V3Z" fill="#03A9F4"/>
<path d="M20.2302 29.3214C14.9643 29.3214 12.5714 26.6885 12.5714 24.6944C12.5714 23.6567 13.2877 22.9405 14.3254 22.9405C16.5595 22.9405 16.002 26.2123 20.2294 26.2123C22.3821 26.2123 23.5786 25.0159 23.5786 23.8195C23.5786 23.1 23.2579 22.3024 21.8246 21.9036L17.1171 20.7071C13.369 19.75 12.6528 17.6746 12.6528 15.6806C12.6528 11.6143 16.4008 10.1786 19.9095 10.1786C23.1806 10.1786 26.9286 11.9325 26.9286 14.3254C26.9286 15.3631 26.131 16.002 25.0932 16.002C23.1806 16.002 23.498 13.2885 19.6686 13.2885C17.756 13.2885 16.6401 14.1675 16.6401 15.4445C16.6401 16.719 18.154 17.1179 19.5099 17.4385L23.021 18.2361C26.8472 19.1111 27.7262 21.3452 27.7262 23.498C27.6448 26.8472 25.252 29.3214 20.2302 29.3214Z" fill="white"/>
</svg>
