<svg width="40" height="40" viewBox="0 0 40 40" fill="none" xmlns="http://www.w3.org/2000/svg">
<path d="M36 10.143C34.7874 10.6801 33.483 11.0385 32.1072 11.2081C33.506 10.3776 34.582 9.05316 35.0871 7.48854C33.7782 8.25573 32.3281 8.81943 30.7855 9.11641C29.5536 7.81027 27.7965 7 25.8497 7C22.11 7 19.0788 10.0046 19.0788 13.7094C19.0788 14.2337 19.1402 14.7443 19.2557 15.2401C13.6297 14.9578 8.63978 12.2832 5.30156 8.22457C4.71494 9.21632 4.38497 10.3776 4.38497 11.6031C4.38497 13.9322 5.57745 15.9826 7.39597 17.1907C6.28598 17.1567 5.24106 16.8478 4.32631 16.3529C4.32631 16.3731 4.32631 16.4033 4.32631 16.4317C4.32631 19.6865 6.66086 22.3969 9.75527 23.0138C9.18973 23.1687 8.59212 23.2548 7.97617 23.2548C7.53895 23.2548 7.11274 23.2053 6.70028 23.1311C7.56187 25.791 10.0614 27.7351 13.0229 27.7929C10.7058 29.5894 7.78735 30.6654 4.61412 30.6654C4.06599 30.6654 3.52979 30.6343 3 30.5701C5.99817 32.4684 9.5582 33.5811 13.3795 33.5811C25.8313 33.5811 32.6434 23.3556 32.6434 14.4849C32.6434 14.1943 32.6343 13.9047 32.6205 13.6187C33.9496 12.6801 35.0953 11.4959 36 10.143Z" fill="#03A9F4"/>
</svg>
