<svg width="40" height="40" viewBox="0 0 40 40" fill="none" xmlns="http://www.w3.org/2000/svg">
<path fill-rule="evenodd" clip-rule="evenodd" d="M32.1707 8.83661C29.055 5.71885 24.9137 4.00105 20.5057 4C11.4055 4 4.00418 11.3982 4 20.4922C3.99896 23.6089 4.87093 26.643 6.52286 29.2704L6.91598 29.8946L5.24836 35.9806L11.4933 34.3433L12.0966 34.7009C14.6288 36.2044 17.5333 36.999 20.4942 37H20.5005C29.5945 37 36.9958 29.6008 36.999 20.5058C37 16.0989 35.2864 11.9544 32.1707 8.83661Z" fill="#40C351"/>
<path fill-rule="evenodd" clip-rule="evenodd" d="M15.5384 12.1959C15.1673 11.3699 14.7763 11.3532 14.4218 11.3386C14.1322 11.326 13.8018 11.3271 13.4714 11.3271C13.1411 11.3271 12.6036 11.4515 12.1488 11.9481C11.694 12.4447 10.4122 13.644 10.4122 16.0842C10.4122 18.5245 12.1896 20.8832 12.4374 21.2136C12.6852 21.544 15.8688 26.712 20.9104 28.7006C25.0998 30.3525 25.953 30.0242 26.8626 29.9416C27.7722 29.859 29.7974 28.7424 30.2103 27.584C30.6233 26.4255 30.6233 25.4333 30.5 25.2263C30.3755 25.0193 30.0451 24.8959 29.5496 24.6471C29.054 24.3983 26.6148 23.199 26.16 23.0338C25.7052 22.8686 25.3748 22.7861 25.0433 23.2827C24.713 23.7783 23.7626 24.8959 23.473 25.2263C23.1833 25.5577 22.8937 25.5996 22.3982 25.3507C21.9026 25.1019 20.305 24.5791 18.4095 22.8896C16.9353 21.5753 15.9399 19.9516 15.6503 19.455C15.3607 18.9594 15.619 18.6907 15.8678 18.4429C16.0905 18.2202 16.3634 17.8637 16.6122 17.5741C16.86 17.2845 16.9426 17.0775 17.1078 16.7471C17.273 16.4156 17.1904 16.126 17.066 15.8782C16.9436 15.6294 15.9797 13.1766 15.5384 12.1959Z" fill="white"/>
</svg>
